<svg xmlns="http://www.w3.org/2000/svg" viewBox="0 0 900 520">
<defs><linearGradient id="g" x1="0" x2="1"><stop stop-color="#7c3aed"/><stop offset="1" stop-color="#2563eb"/></linearGradient><filter id="s"><feDropShadow dx="0" dy="18" stdDeviation="20" flood-opacity=".25"/></filter></defs>
<rect width="900" height="520" rx="36" fill="#0f1020"/><circle cx="770" cy="80" r="180" fill="#7c3aed" opacity=".12"/><circle cx="140" cy="460" r="170" fill="#2563eb" opacity=".10"/>
<rect x="92" y="76" width="716" height="360" rx="24" fill="#15172a" stroke="#363851"/><rect x="118" y="106" width="664" height="66" rx="14" fill="#1e2138"/>
<circle cx="145" cy="139" r="9" fill="#8b5cf6"/><text x="170" y="146" fill="#fff" font-family="Arial" font-size="25" font-weight="700">BudgetBuddy</text>
<rect x="128" y="200" width="205" height="92" rx="16" fill="#20243c"/><text x="150" y="231" fill="#9298b8" font-family="Arial" font-size="15">TOTAL SAVINGS</text><text x="150" y="270" fill="#fff" font-family="Arial" font-size="28" font-weight="700">₹24,850</text>
<rect x="354" y="200" width="205" height="92" rx="16" fill="#20243c"/><text x="376" y="231" fill="#9298b8" font-family="Arial" font-size="15">MONTHLY SPEND</text><text x="376" y="270" fill="#fff" font-family="Arial" font-size="28" font-weight="700">₹8,420</text>
<rect x="580" y="200" width="178" height="184" rx="16" fill="#20243c"/><circle cx="669" cy="292" r="58" fill="none" stroke="#292d49" stroke-width="18"/><path d="M669 234a58 58 0 1 1-51 86" fill="none" stroke="url(#g)" stroke-width="18" stroke-linecap="round"/><text x="638" y="300" fill="#fff" font-family="Arial" font-size="20" font-weight="700">72%</text><text x="616" y="331" fill="#9298b8" font-family="Arial" font-size="13">Budget used</text>
<rect x="128" y="315" width="431" height="69" rx="14" fill="#20243c"/><path d="M151 365L220 342 282 353 345 320 410 337 470 305 536 324" fill="none" stroke="#8b5cf6" stroke-width="5" stroke-linecap="round"/><circle cx="536" cy="324" r="6" fill="#8b5cf6"/></svg>